HIERARCHY
ROOT Hips
{
 OFFSET 0.000000 0.000000 0.000000
 CHANNELS 6 Xposition Yposition Zposition Yrotation Xrotation Zrotation
 JOINT Chest
 {
  OFFSET 0.000000 10.354800 0.006500
  CHANNELS 3 Yrotation Xrotation Zrotation
  JOINT Chest2
  {
   OFFSET 0.000000 10.435800 -0.013200
   CHANNELS 3 Yrotation Xrotation Zrotation
   JOINT Chest3
   {
    OFFSET 0.000000 10.393700 0.000000
    CHANNELS 3 Yrotation Xrotation Zrotation
    JOINT Chest4
    {
     OFFSET 0.000000 10.383100 0.000000
     CHANNELS 3 Yrotation Xrotation Zrotation
     JOINT Neck
     {
      OFFSET 0.000000 15.694000 0.000000
      CHANNELS 3 Yrotation Xrotation Zrotation
      JOINT Head
      {
       OFFSET 0.000000 9.711000 -0.028000
       CHANNELS 3 Yrotation Xrotation Zrotation
       End Site
       {
        OFFSET 0.000000 18.578700 -0.014800
       }
      }
     }
     JOINT RightCollar
     {
      OFFSET -3.157200 10.367500 0.000000
      CHANNELS 3 Yrotation Xrotation Zrotation
      JOINT RightShoulder
      {
       OFFSET -14.482500 0.000000 0.000000
       CHANNELS 3 Yrotation Xrotation Zrotation
       JOINT RightElbow
       {
        OFFSET 0.000000 -31.707800 0.000000
        CHANNELS 3 Yrotation Xrotation Zrotation
        JOINT RightWrist
        {
         OFFSET 0.000000 -25.659300 0.000000
         CHANNELS 3 Yrotation Xrotation Zrotation
         End Site
         {
          OFFSET 0.000000 -18.994300 0.000000
         }
        }
       }
      }
     }
     JOINT LeftCollar
     {
      OFFSET 3.157200 10.367500 0.000000
      CHANNELS 3 Yrotation Xrotation Zrotation
      JOINT LeftShoulder
      {
       OFFSET 14.482500 0.000000 0.000000
       CHANNELS 3 Yrotation Xrotation Zrotation
       JOINT LeftElbow
       {
        OFFSET 0.000000 -31.707800 0.000000
        CHANNELS 3 Yrotation Xrotation Zrotation
        JOINT LeftWrist
        {
         OFFSET 0.000000 -25.659300 0.000000
         CHANNELS 3 Yrotation Xrotation Zrotation
         End Site
         {
          OFFSET 0.000000 -18.994300 0.000000
         }
        }
       }
      }
     }
    }
   }
  }
 }
 JOINT RightHip
 {
  OFFSET -8.365600 -0.032100 -0.003200
  CHANNELS 3 Yrotation Xrotation Zrotation
  JOINT RightKnee
  {
   OFFSET 0.000000 -43.980000 0.003100
   CHANNELS 3 Yrotation Xrotation Zrotation
   JOINT RightAnkle
   {
    OFFSET 0.000000 -42.882800 0.005200
    CHANNELS 3 Yrotation Xrotation Zrotation
    JOINT RightToe
    {
     OFFSET 0.000000 -4.915500 10.826300
     CHANNELS 3 Yrotation Xrotation Zrotation
     End Site
     {
      OFFSET 0.000000 -1.517500 6.175900
     }
    }
   }
  }
 }
 JOINT LeftHip
 {
  OFFSET 8.365600 -0.032100 -0.003200
  CHANNELS 3 Yrotation Xrotation Zrotation
  JOINT LeftKnee
  {
   OFFSET 0.000000 -43.980000 0.003100
   CHANNELS 3 Yrotation Xrotation Zrotation
   JOINT LeftAnkle
   {
    OFFSET 0.000000 -42.882800 0.005200
    CHANNELS 3 Yrotation Xrotation Zrotation
    JOINT LeftToe
    {
     OFFSET 0.000000 -4.915500 10.826300
     CHANNELS 3 Yrotation Xrotation Zrotation
     End Site
     {
      OFFSET 0.000000 -1.517500 6.175900
     }
    }
   }
  }
 }
}
MOTION
Frames: 15
Frame Time: 0.008333
0.000000 91.618600 0.000000 0.000000 -5.767877 0.000000 0.000000 11.653817 0.000000 0.000000 -5.885947 0.000000 0.000000 -0.000000 0.000000 0.000000 -0.000000 0.000000 0.000000 12.528835 0.000000 0.000000 0.711642 0.000000 0.000000 -0.000000 0.000000 0.000000 0.000000 -90.000000 0.000000 -2.309062 0.000000 0.000000 2.309062 0.000000 0.000000 -0.000000 0.000000 0.000000 -0.000000 90.000000 0.000000 -2.309062 0.000000 0.000000 2.309062 0.000000 0.000000 8.520406 0.000000 0.000000 1.905762 0.000000 -0.000000 -4.658285 0.000000 0.000000 -0.000000 0.000000 0.000000 8.520406 0.000000 0.000000 1.905762 0.000000 -0.000000 -4.658285 0.000000 0.000000 -0.000000 0.000000
-6.526098 147.012162 29.083627 176.147227 -18.342463 -2.997396 -0.349028 11.236119 4.415710 -0.055445 0.818351 0.340540 -0.135993 1.405451 0.578915 -0.376505 10.253268 4.231238 -1.894723 20.654673 -2.358844 -1.513802 -3.775357 -2.082116 3.008156 4.364947 -4.306813 14.078774 -7.271496 -7.255933 52.000731 -46.649939 -39.514552 -6.344892 -1.559325 -24.515553 -1.232013 7.292055 0.843308 -1.909468 -3.140036 -4.103530 -44.867150 -59.251287 23.312679 8.336818 -8.643913 30.900106 10.805393 -55.674362 -7.839178 -160.915058 68.468389 -153.571818 -2.589987 -28.910810 2.346825 0.121153 -0.219488 0.047012 -11.794484 -54.721279 8.695175 161.172704 73.470689 157.496900 -2.969339 -31.767983 0.095420 0.013240 0.185586 0.021350
-2.980522 140.488288 29.586272 176.157691 -18.386994 -3.109336 -0.374637 11.277958 4.513559 -0.058191 0.823101 0.341596 -0.136716 1.415333 0.575848 -0.408447 10.283026 4.228554 -1.890947 20.589064 -2.378996 -1.475633 -3.836066 -2.108107 3.030971 4.357650 -4.370543 14.085158 -7.316682 -7.165322 51.876624 -46.649605 -39.450055 -6.293374 -1.565413 -24.479968 -1.175425 7.242144 0.822209 -1.917405 -3.103645 -4.108068 -44.919272 -59.207029 23.382640 8.331861 -8.715477 30.966858 10.633363 -55.656580 -7.645750 -160.954946 68.450171 -153.601445 -2.518755 -29.008554 2.335158 0.060835 -0.133490 0.027578 -11.884171 -54.647486 8.821469 161.137207 73.483975 157.480825 -2.967517 -31.688734 0.099469 0.009634 0.110942 0.004373
-0.063007 135.115524 30.002665 176.170862 -18.420897 -3.195356 -0.400761 11.310346 4.580100 -0.100362 0.829283 0.332181 -0.106209 1.424390 0.586908 -0.441669 10.315088 4.224181 -1.869011 20.529605 -2.399143 -1.447195 -3.904143 -2.134003 3.059273 4.339363 -4.432421 14.022005 -7.376898 -6.953876 51.862292 -46.553634 -39.443973 -6.237928 -1.582038 -24.454302 -1.106420 7.194484 0.811394 -1.940385 -3.070676 -4.110947 -44.967637 -59.152123 23.447200 8.327829 -8.830996 31.069073 10.502521 -55.643585 -7.503379 -160.991520 68.433718 -153.629047 -2.477509 -29.087199 2.328919 0.025890 -0.068665 0.011744 -11.938931 -54.592332 8.902767 161.118504 73.493274 157.475501 -2.958672 -31.635188 0.111136 0.004951 0.055890 0.002248
2.039882 131.235880 30.302899 176.182983 -18.460106 -3.240019 -0.475552 11.349269 4.587007 -0.067074 0.839023 0.344661 -0.100481 1.430292 0.588890 -0.447638 10.328995 4.222329 -1.856863 20.499686 -2.410234 -1.441885 -3.979271 -2.169271 3.073950 4.328941 -4.465801 13.986823 -7.412813 -6.806452 51.751347 -46.492385 -39.379255 -6.183059 -1.606395 -24.436953 -1.076624 7.159674 0.802588 -1.949674 -2.999366 -3.985937 -44.916214 -59.193169 23.371641 8.326943 -8.985055 31.212239 10.439455 -55.611846 -7.444299 -161.031188 68.421984 -153.648328 -2.464320 -29.123872 2.319853 0.022295 -0.043540 0.010116 -11.961147 -54.540280 8.934159 161.121041 73.497049 157.471079 -2.959880 -31.620501 0.130644 0.001358 0.034699 0.000616
3.368411 128.786066 30.493328 176.201774 -18.492285 -3.279292 -0.519393 11.385307 4.607676 -0.052306 0.841016 0.348095 -0.092187 1.431592 0.590109 -0.477058 10.349803 4.217564 -1.844150 20.469392 -2.422970 -1.425198 -4.011779 -2.188578 3.035519 4.328029 -4.567398 14.023917 -7.469481 -6.615878 51.578951 -46.456795 -39.274918 -6.129108 -1.629456 -24.425300 -1.086618 7.076151 0.798873 -1.918062 -2.911386 -3.926825 -44.895964 -59.161899 23.325293 8.337932 -9.152199 31.405603 10.392291 -55.581882 -7.411331 -161.081767 68.415125 -153.680640 -2.447347 -29.162534 2.318665 0.008399 -0.016019 0.003812 -11.981012 -54.499823 8.949874 161.100603 73.499726 157.459976 -2.970356 -31.601684 0.138515 0.004048 0.013057 0.001838
4.096628 127.438796 30.597999 176.218184 -18.515562 -3.293436 -0.556005 11.413254 4.607009 -0.047489 0.841603 0.350847 -0.116928 1.442933 0.589645 -0.513188 10.383212 4.210069 -1.866022 20.399354 -2.493124 -1.340387 -4.024940 -2.183479 3.026010 4.310412 -4.687869 14.091642 -7.524545 -6.401270 51.349625 -46.437273 -39.135738 -6.069518 -1.642723 -24.414123 -1.021280 7.019073 0.794390 -1.950163 -2.875465 -3.891904 -44.899910 -59.105236 23.320438 8.367343 -9.300348 31.672438 10.389539 -55.555297 -7.429492 -161.118010 68.408603 -153.700992 -2.436960 -29.175009 2.319105 0.008838 -0.011969 0.004012 -11.936919 -54.482384 8.902010 161.129473 73.497636 157.504294 -2.957238 -31.607882 0.151110 0.003532 0.006209 0.001604
4.442181 126.796625 30.648020 176.229668 -18.520035 -3.297359 -0.574194 11.419929 4.603950 -0.073626 0.849011 0.345877 -0.156371 1.469494 0.582151 -0.571017 10.419251 4.187954 -1.798606 20.313648 -2.553948 -1.309617 -4.138475 -2.289821 3.080881 4.279740 -4.784126 14.178241 -7.572867 -6.187676 51.025177 -46.462391 -38.925831 -5.993323 -1.630207 -24.405857 -0.944482 6.882421 0.777469 -2.013897 -2.789209 -3.843605 -44.882241 -59.037307 23.332652 8.421691 -9.402851 32.056212 10.421746 -55.544912 -7.484800 -161.187827 68.414046 -153.749823 -2.441422 -29.177956 2.324951 0.010013 -0.009592 0.004545 -11.820732 -54.496661 8.775285 161.033783 73.487741 157.473282 -2.944998 -31.607411 0.156184 -0.000966 0.000332 -0.000439
4.583167 126.533278 30.665390 176.239989 -18.516031 -3.297744 -0.610627 11.428497 4.590838 -0.076914 0.852150 0.345436 -0.155867 1.482828 0.574196 -0.621287 10.441750 4.162491 -1.758353 20.242558 -2.610826 -1.279205 -4.228536 -2.383039 3.073880 4.283119 -4.881756 14.298818 -7.631649 -5.961852 50.565700 -46.573436 -38.592022 -5.887362 -1.566209 -24.407719 -0.935068 6.711383 0.727072 -2.164488 -2.669774 -3.732089 -44.782251 -58.977428 23.289605 8.505735 -9.440571 32.621838 10.479685 -55.540297 -7.569317 -161.259170 68.426526 -153.795569 -2.444978 -29.175748 2.334717 0.010697 -0.010359 0.004856 -11.759577 -54.511802 8.697955 160.993828 73.487182 157.461803 -2.930907 -31.604714 0.163125 -0.001699 -0.003191 -0.000771
4.632618 126.440255 30.666012 176.250538 -18.496265 -3.297180 -0.657068 11.477033 4.553746 -0.081242 0.853237 0.342156 -0.135669 1.457270 0.583707 -0.648051 10.444664 4.138717 -1.732513 20.165253 -2.676797 -1.236228 -4.315170 -2.458751 3.027344 4.305004 -4.984578 14.446526 -7.699899 -5.726940 49.955971 -46.808998 -38.102159 -5.765207 -1.412064 -24.416092 -0.952804 6.522557 0.647625 -2.404382 -2.552529 -3.532569 -44.554200 -58.951752 23.095412 8.629525 -9.392970 33.408164 10.562524 -55.548183 -7.690142 -161.316423 68.443338 -153.819075 -2.427861 -29.163765 2.339814 0.010937 -0.012568 0.004965 -11.735238 -54.537972 8.656084 160.987864 73.493335 157.464733 -2.920649 -31.596518 0.172456 0.002173 -0.005769 0.000986
4.645671 126.406391 30.670441 176.272255 -18.380080 -3.289219 -0.693547 11.388500 4.530051 -0.082359 0.884930 0.325206 -0.137426 1.452333 0.578479 -0.665632 10.432191 4.108956 -1.698767 20.074391 -2.743847 -1.184522 -4.417143 -2.537193 2.949957 4.345947 -5.084697 14.604357 -7.782503 -5.486692 49.196529 -47.195498 -37.433430 -5.669824 -1.140291 -24.425668 -0.997750 6.352484 0.568534 -2.715848 -2.475141 -3.223527 -44.089257 -59.006143 22.608570 8.815775 -9.236542 34.392532 10.697141 -55.645940 -7.900416 -161.474164 68.469141 -153.925338 -2.423561 -29.161773 2.341224 0.008279 -0.009081 0.003758 -11.738766 -54.662450 8.626799 160.942281 73.494685 157.431708 -2.925770 -31.593646 0.179713 0.008970 -0.003631 0.004072
4.651105 126.392348 30.667085 176.274052 -18.254107 -3.284131 -0.676636 11.352231 4.490722 -0.076962 0.861940 0.325508 -0.134818 1.440327 0.570228 -0.655399 10.396752 4.070879 -1.670235 19.975092 -2.800017 -1.140825 -4.528762 -2.602769 2.803499 4.443224 -5.176497 14.732790 -7.934757 -5.292297 48.232130 -47.772117 -36.461433 -5.637095 -0.761028 -24.455650 -1.102176 6.271049 0.545100 -3.130272 -2.492108 -2.811502 -43.177661 -59.195314 21.649454 9.082531 -8.950776 35.499213 10.869696 -55.755670 -8.137456 -161.556567 68.512366 -153.945305 -2.379275 -29.122575 2.332323 0.005894 -0.007177 0.002676 -11.715913 -54.796872 8.586253 160.847906 73.492659 157.365274 -2.934960 -31.591116 0.190950 0.010800 -0.006731 0.004903
4.651426 126.379622 30.666225 176.286232 -18.059052 -3.262685 -0.625035 11.262491 4.425111 -0.075816 0.831044 0.327185 -0.126659 1.420699 0.558516 -0.608673 10.336922 4.022904 -1.655875 19.867520 -2.839543 -1.115934 -4.649827 -2.647204 2.571788 4.595671 -5.260016 14.855562 -8.137148 -5.077343 47.047415 -48.510887 -35.218675 -5.689498 -0.301927 -24.527855 -1.278231 6.286954 0.616237 -3.685000 -2.616303 -2.344259 -41.625850 -59.540186 20.096684 9.429110 -8.493136 36.619676 11.099589 -55.925863 -8.468169 -161.772195 68.563652 -154.084547 -2.357025 -29.093374 2.324300 0.002643 -0.004309 0.001200 -11.659583 -54.996182 8.470743 160.646794 73.521461 157.214894 -2.903391 -31.577107 0.178938 0.010933 -0.007321 0.004963
4.650296 126.367476 30.658589 176.301921 -17.853503 -3.226375 -0.543520 11.167594 4.348859 -0.068206 0.816589 0.318639 -0.113882 1.396681 0.544247 -0.529900 10.263458 3.965462 -1.653974 19.742649 -2.865263 -1.107300 -4.790543 -2.673759 2.282741 4.704338 -5.330326 14.977446 -8.259182 -4.834642 45.589311 -49.462585 -33.699952 -5.840426 0.212824 -24.638897 -1.517573 6.321400 0.784078 -4.370711 -2.820668 -1.887923 -39.338149 -60.004425 17.889614 9.858255 -7.795302 37.664680 11.382529 -56.100771 -8.869929 -162.049639 68.629133 -154.268163 -2.342838 -29.060466 2.312924 -0.009330 0.002988 -0.004237 -11.639863 -55.195850 8.372896 160.497407 73.564705 157.084372 -2.858946 -31.558020 0.159482 0.013173 0.000155 0.005981
4.648411 126.354327 30.647296 176.315086 -17.625717 -3.175039 -0.420401 11.081928 4.263700 -0.058037 0.801665 0.309552 -0.096684 1.371963 0.529191 -0.417174 10.187384 3.905191 -1.669597 19.595850 -2.885953 -1.118410 -4.955744 -2.690747 1.960382 4.672205 -5.395986 15.091607 -8.326811 -4.655440 43.555827 -50.652564 -31.576440 -6.094356 0.754358 -24.771014 -1.835098 6.284610 1.018720 -5.122457 -3.088735 -1.496549 -36.258172 -60.511604 14.937870 10.395747 -6.804049 38.585063 11.742823 -56.293061 -9.353470 -162.401760 68.704827 -154.499635 -2.339426 -29.014711 2.304542 -0.019089 0.013414 -0.008669 -11.610372 -55.406718 8.238317 160.316729 73.622275 156.919185 -2.781780 -31.538251 0.133943 0.007027 0.015766 0.003192
